{
  "accessors": [
    {
      "bufferView": 2,
      "componentType": 5126,
      "count": 65532,
      "max": [
        28.079132080078125,
        6.667006969451904,
        43.26445770263672
      ],
      "min": [
        -28.079132080078125,
        1.8802109956741333,
        17.143247604370117
      ],
      "type": "VEC3"
    },
    {
      "bufferView": 2,
      "byteOffset": 786384,
      "componentType": 5126,
      "count": 65532,
      "max": [
        0.9999881386756897,
        0.9894812107086182,
        0.9999951124191284
      ],
      "min": [
        -0.999991774559021,
        -1.0,
        -0.9999949932098389
      ],
      "type": "VEC3"
    },
    {
      "bufferView": 1,
      "componentType": 5126,
      "count": 65532,
      "max": [
        0.9964060187339783,
        0.9981369972229004
      ],
      "min": [
        4.600000102072954e-05,
        0.0016210000030696392
      ],
      "type": "VEC2"
    },
    {
      "bufferView": 0,
      "componentType": 5125,
      "count": 334119,
      "type": "SCALAR"
    },
    {
      "bufferView": 2,
      "byteOffset": 1572768,
      "componentType": 5126,
      "count": 65532,
      "max": [
        27.403308868408203,
        6.484020233154297,
        39.59007263183594
      ],
      "min": [
        -25.955020904541016,
        2.2546420097351074,
        20.916826248168945
      ],
      "type": "VEC3"
    },
    {
      "bufferView": 2,
      "byteOffset": 2359152,
      "componentType": 5126,
      "count": 65532,
      "max": [
        0.9999368786811829,
        0.9909494519233704,
        0.9999757409095764
      ],
      "min": [
        -0.9999958872795105,
        -0.9999979734420776,
        -0.9999949932098389
      ],
      "type": "VEC3"
    },
    {
      "bufferView": 1,
      "byteOffset": 524256,
      "componentType": 5126,
      "count": 65532,
      "max": [
        0.9996349811553955,
        0.9991310238838196
      ],
      "min": [
        1.8999999156221747e-05,
        0.0005370000144466758
      ],
      "type": "VEC2"
    },
    {
      "bufferView": 0,
      "byteOffset": 1336476,
      "componentType": 5125,
      "count": 312939,
      "type": "SCALAR"
    },
    {
      "bufferView": 2,
      "byteOffset": 3145536,
      "componentType": 5126,
      "count": 65532,
      "max": [
        23.95687484741211,
        5.9535980224609375,
        39.5280876159668
      ],
      "min": [
        -25.765254974365234,
        1.438876986503601,
        12.4566650390625
      ],
      "type": "VEC3"
    },
    {
      "bufferView": 2,
      "byteOffset": 3931920,
      "componentType": 5126,
      "count": 65532,
      "max": [
        0.9999969005584717,
        0.9997843503952026,
        0.9999977350234985
      ],
      "min": [
        -0.9999666213989258,
        -0.9999996423721313,
        -0.9999744892120361
      ],
      "type": "VEC3"
    },
    {
      "bufferView": 1,
      "byteOffset": 1048512,
      "componentType": 5126,
      "count": 65532,
      "max": [
        0.9994869828224182,
        0.999239981174469
      ],
      "min": [
        0.00011700000322889537,
        0.0005039999959990382
      ],
      "type": "VEC2"
    },
    {
      "bufferView": 0,
      "byteOffset": 2588232,
      "componentType": 5125,
      "count": 320652,
      "type": "SCALAR"
    },
    {
      "bufferView": 2,
      "byteOffset": 4718304,
      "componentType": 5126,
      "count": 65532,
      "max": [
        25.061912536621094,
        6.174816131591797,
        30.073383331298828
      ],
      "min": [
        -28.030784606933594,
        -2.8753700256347656,
        4.337248802185059
      ],
      "type": "VEC3"
    },
    {
      "bufferView": 2,
      "byteOffset": 5504688,
      "componentType": 5126,
      "count": 65532,
      "max": [
        0.9999831318855286,
        0.9981124997138977,
        0.9999986290931702
      ],
      "min": [
        -0.9999989867210388,
        -1.0,
        -0.9998906254768372
      ],
      "type": "VEC3"
    },
    {
      "bufferView": 1,
      "byteOffset": 1572768,
      "componentType": 5126,
      "count": 65532,
      "max": [
        0.9999409914016724,
        0.9996839761734009
      ],
      "min": [
        9.000000318337698e-06,
        0.0002640000020619482
      ],
      "type": "VEC2"
    },
    {
      "bufferView": 0,
      "byteOffset": 3870840,
      "componentType": 5125,
      "count": 293304,
      "type": "SCALAR"
    },
    {
      "bufferView": 2,
      "byteOffset": 6291072,
      "componentType": 5126,
      "count": 65532,
      "max": [
        23.832897186279297,
        5.722774982452393,
        18.496877670288086
      ],
      "min": [
        -27.8275146484375,
        -4.670146942138672,
        -15.659845352172852
      ],
      "type": "VEC3"
    },
    {
      "bufferView": 2,
      "byteOffset": 7077456,
      "componentType": 5126,
      "count": 65532,
      "max": [
        0.9999967813491821,
        0.9973106384277344,
        0.9999508857727051
      ],
      "min": [
        -0.999987006187439,
        -1.0,
        -0.9999898672103882
      ],
      "type": "VEC3"
    },
    {
      "bufferView": 1,
      "byteOffset": 2097024,
      "componentType": 5126,
      "count": 65532,
      "max": [
        0.9999960064888,
        0.9999989867210388
      ],
      "min": [
        9.999999974752427e-07,
        4.600000102072954e-05
      ],
      "type": "VEC2"
    },
    {
      "bufferView": 0,
      "byteOffset": 5044056,
      "componentType": 5125,
      "count": 312531,
      "type": "SCALAR"
    },
    {
      "bufferView": 2,
      "byteOffset": 7863840,
      "componentType": 5126,
      "count": 65532,
      "max": [
        17.3116397857666,
        6.968970775604248,
        0.016475999727845192
      ],
      "min": [
        -20.48058319091797,
        -3.490009069442749,
        -30.822040557861328
      ],
      "type": "VEC3"
    },
    {
      "bufferView": 2,
      "byteOffset": 8650224,
      "componentType": 5126,
      "count": 65532,
      "max": [
        0.9999839067459106,
        0.9969846606254578,
        0.9999712109565735
      ],
      "min": [
        -0.999961256980896,
        -0.9999987483024597,
        -0.9999991059303284
      ],
      "type": "VEC3"
    },
    {
      "bufferView": 1,
      "byteOffset": 2621280,
      "componentType": 5126,
      "count": 65532,
      "max": [
        0.9999840259552002,
        0.9989910125732422
      ],
      "min": [
        1.8999999156221747e-05,
        0.0005169999785721302
      ],
      "type": "VEC2"
    },
    {
      "bufferView": 0,
      "byteOffset": 6294180,
      "componentType": 5125,
      "count": 328305,
      "type": "SCALAR"
    },
    {
      "bufferView": 2,
      "byteOffset": 9436608,
      "componentType": 5126,
      "count": 65532,
      "max": [
        16.98678207397461,
        6.882781982421875,
        -11.817117691040039
      ],
      "min": [
        -19.94333267211914,
        -3.513641119003296,
        -42.32378387451172
      ],
      "type": "VEC3"
    },
    {
      "bufferView": 2,
      "byteOffset": 10222992,
      "componentType": 5126,
      "count": 65532,
      "max": [
        0.9999842643737793,
        0.9986053705215454,
        0.999995231628418
      ],
      "min": [
        -0.9999126195907593,
        -0.9999940991401672,
        -0.9999063611030579
      ],
      "type": "VEC3"
    },
    {
      "bufferView": 1,
      "byteOffset": 3145536,
      "componentType": 5126,
      "count": 65532,
      "max": [
        0.9996970295906067,
        0.9989690184593201
      ],
      "min": [
        2.2000000171829015e-05,
        7.999999979801942e-06
      ],
      "type": "VEC2"
    },
    {
      "bufferView": 0,
      "byteOffset": 7607400,
      "componentType": 5125,
      "count": 315711,
      "type": "SCALAR"
    },
    {
      "bufferView": 2,
      "byteOffset": 11009376,
      "componentType": 5126,
      "count": 65532,
      "max": [
        19.58188819885254,
        6.829864978790283,
        0.5449129939079285
      ],
      "min": [
        -23.573169708251953,
        -3.4134750366210938,
        -43.26445770263672
      ],
      "type": "VEC3"
    },
    {
      "bufferView": 2,
      "byteOffset": 11795760,
      "componentType": 5126,
      "count": 65532,
      "max": [
        0.9999354481697083,
        0.9986053705215454,
        0.9999515414237976
      ],
      "min": [
        -0.9999436140060425,
        -0.9999997615814209,
        -0.9999899864196777
      ],
      "type": "VEC3"
    },
    {
      "bufferView": 1,
      "byteOffset": 3669792,
      "componentType": 5126,
      "count": 65532,
      "max": [
        0.9997320175170898,
        0.9987429976463318
      ],
      "min": [
        3.5000000934815034e-05,
        3.400000059627928e-05
      ],
      "type": "VEC2"
    },
    {
      "bufferView": 0,
      "byteOffset": 8870244,
      "componentType": 5125,
      "count": 304959,
      "type": "SCALAR"
    },
    {
      "bufferView": 2,
      "byteOffset": 12582144,
      "componentType": 5126,
      "count": 65532,
      "max": [
        21.665414810180664,
        6.688114166259766,
        8.226886749267578
      ],
      "min": [
        -24.142536163330078,
        -5.554478168487549,
        -13.534523010253906
      ],
      "type": "VEC3"
    },
    {
      "bufferView": 2,
      "byteOffset": 13368528,
      "componentType": 5126,
      "count": 65532,
      "max": [
        0.9999951124191284,
        0.9840925335884094,
        0.9999930262565613
      ],
      "min": [
        -0.9999818801879883,
        -1.0,
        -0.9999551177024841
      ],
      "type": "VEC3"
    },
    {
      "bufferView": 1,
      "byteOffset": 4194048,
      "componentType": 5126,
      "count": 65532,
      "max": [
        0.9999380111694336,
        0.9991480112075806
      ],
      "min": [
        7.000000096013537e-06,
        4.5000000682193786e-05
      ],
      "type": "VEC2"
    },
    {
      "bufferView": 0,
      "byteOffset": 10090080,
      "componentType": 5125,
      "count": 327441,
      "type": "SCALAR"
    },
    {
      "bufferView": 2,
      "byteOffset": 14154912,
      "componentType": 5126,
      "count": 16217,
      "max": [
        20.723983764648438,
        5.742045879364014,
        18.463777542114258
      ],
      "min": [
        -27.22042465209961,
        -6.968975067138672,
        -1.8465739488601685
      ],
      "type": "VEC3"
    },
    {
      "bufferView": 2,
      "byteOffset": 14349516,
      "componentType": 5126,
      "count": 16217,
      "max": [
        0.9997766017913818,
        0.9976662397384644,
        0.9999986290931702
      ],
      "min": [
        -0.999948263168335,
        -0.9999995827674866,
        -0.9997363686561584
      ],
      "type": "VEC3"
    },
    {
      "bufferView": 1,
      "byteOffset": 4718304,
      "componentType": 5126,
      "count": 16217,
      "max": [
        0.9997010231018066,
        0.9991639852523804
      ],
      "min": [
        5.999999848427251e-05,
        0.00037200000951997936
      ],
      "type": "VEC2"
    },
    {
      "bufferView": 0,
      "byteOffset": 11399844,
      "componentType": 5125,
      "count": 61428,
      "type": "SCALAR"
    }
  ],
  "asset": {
    "extras": {
      "author": "Andrea Spognetta (Spogna) (https://sketchfab.com/spogna)",
      "license": "CC-BY-NC-4.0 (http://creativecommons.org/licenses/by-nc/4.0/)",
      "source": "https://sketchfab.com/3d-models/fortress-in-corfu-greece-rawscan-61eaa64a66054234adf926adba857ef8",
      "title": "Fortress in Corfu (Greece) █ RAWscan █"
    },
    "generator": "Sketchfab-12.67.0",
    "version": "2.0"
  },
  "bufferViews": [
    {
      "buffer": 0,
      "byteLength": 11645556,
      "name": "floatBufferViews",
      "target": 34963
    },
    {
      "buffer": 0,
      "byteLength": 4848040,
      "byteOffset": 11645556,
      "byteStride": 8,
      "name": "floatBufferViews",
      "target": 34962
    },
    {
      "buffer": 0,
      "byteLength": 14544120,
      "byteOffset": 16493596,
      "byteStride": 12,
      "name": "floatBufferViews",
      "target": 34962
    }
  ],
  "buffers": [
    {
      "byteLength": 31037716,
      "uri": "scene.bin"
    }
  ],
  "extensionsUsed": [
    "KHR_materials_unlit"
  ],
  "images": [
    {
      "uri": "textures/corfu_baseColor.jpeg"
    }
  ],
  "materials": [
    {
      "doubleSided": true,
      "extensions": {
        "KHR_materials_unlit": {}
      },
      "name": "corfu",
      "pbrMetallicRoughness": {
        "baseColorTexture": {
          "index": 0
        },
        "metallicFactor": 0.0
      }
    }
  ],
  "meshes": [
    {
      "name": "Object_0",
      "primitives": [
        {
          "attributes": {
            "NORMAL": 1,
            "POSITION": 0,
            "TEXCOORD_0": 2
          },
          "indices": 3,
          "material": 0,
          "mode": 4
        }
      ]
    },
    {
      "name": "Object_1",
      "primitives": [
        {
          "attributes": {
            "NORMAL": 5,
            "POSITION": 4,
            "TEXCOORD_0": 6
          },
          "indices": 7,
          "material": 0,
          "mode": 4
        }
      ]
    },
    {
      "name": "Object_2",
      "primitives": [
        {
          "attributes": {
            "NORMAL": 9,
            "POSITION": 8,
            "TEXCOORD_0": 10
          },
          "indices": 11,
          "material": 0,
          "mode": 4
        }
      ]
    },
    {
      "name": "Object_3",
      "primitives": [
        {
          "attributes": {
            "NORMAL": 13,
            "POSITION": 12,
            "TEXCOORD_0": 14
          },
          "indices": 15,
          "material": 0,
          "mode": 4
        }
      ]
    },
    {
      "name": "Object_4",
      "primitives": [
        {
          "attributes": {
            "NORMAL": 17,
            "POSITION": 16,
            "TEXCOORD_0": 18
          },
          "indices": 19,
          "material": 0,
          "mode": 4
        }
      ]
    },
    {
      "name": "Object_5",
      "primitives": [
        {
          "attributes": {
            "NORMAL": 21,
            "POSITION": 20,
            "TEXCOORD_0": 22
          },
          "indices": 23,
          "material": 0,
          "mode": 4
        }
      ]
    },
    {
      "name": "Object_6",
      "primitives": [
        {
          "attributes": {
            "NORMAL": 25,
            "POSITION": 24,
            "TEXCOORD_0": 26
          },
          "indices": 27,
          "material": 0,
          "mode": 4
        }
      ]
    },
    {
      "name": "Object_7",
      "primitives": [
        {
          "attributes": {
            "NORMAL": 29,
            "POSITION": 28,
            "TEXCOORD_0": 30
          },
          "indices": 31,
          "material": 0,
          "mode": 4
        }
      ]
    },
    {
      "name": "Object_8",
      "primitives": [
        {
          "attributes": {
            "NORMAL": 33,
            "POSITION": 32,
            "TEXCOORD_0": 34
          },
          "indices": 35,
          "material": 0,
          "mode": 4
        }
      ]
    },
    {
      "name": "Object_9",
      "primitives": [
        {
          "attributes": {
            "NORMAL": 37,
            "POSITION": 36,
            "TEXCOORD_0": 38
          },
          "indices": 39,
          "material": 0,
          "mode": 4
        }
      ]
    }
  ],
  "nodes": [
    {
      "children": [
        1
      ],
      "matrix": [
        1.0,
        0.0,
        0.0,
        0.0,
        0.0,
        -1.0,
        -4.440892098500626e-16,
        0.0,
        0.0,
        4.440892098500626e-16,
        -1.0,
        0.0,
        0.0,
        -7.414817810058592e-05,
        -7.462501525878908e-05,
        1.0
      ],
      "name": "Sketchfab_model"
    },
    {
      "children": [
        2,
        3,
        4,
        5,
        6,
        7,
        8,
        9,
        10,
        11
      ],
      "name": "corfu.obj.cleaner.materialmerger.gles"
    },
    {
      "mesh": 0,
      "name": "Object_2"
    },
    {
      "mesh": 1,
      "name": "Object_3"
    },
    {
      "mesh": 2,
      "name": "Object_4"
    },
    {
      "mesh": 3,
      "name": "Object_5"
    },
    {
      "mesh": 4,
      "name": "Object_6"
    },
    {
      "mesh": 5,
      "name": "Object_7"
    },
    {
      "mesh": 6,
      "name": "Object_8"
    },
    {
      "mesh": 7,
      "name": "Object_9"
    },
    {
      "mesh": 8,
      "name": "Object_10"
    },
    {
      "mesh": 9,
      "name": "Object_11"
    }
  ],
  "samplers": [
    {
      "magFilter": 9729,
      "minFilter": 9987,
      "wrapS": 10497,
      "wrapT": 10497
    }
  ],
  "scene": 0,
  "scenes": [
    {
      "name": "Sketchfab_Scene",
      "nodes": [
        0
      ]
    }
  ],
  "textures": [
    {
      "sampler": 0,
      "source": 0
    }
  ]
}
